<?xml version="1.0" standalone="no"?>
<!DOCTYPE svg PUBLIC "-//W3C//DTD SVG 20010904//EN"
 "http://www.w3.org/TR/2001/REC-SVG-20010904/DTD/svg10.dtd">
<svg version="1.0" xmlns="http://www.w3.org/2000/svg"
 width="512.000000pt" height="512.000000pt" viewBox="0 0 512.000000 512.000000"
 preserveAspectRatio="xMidYMid meet">
<metadata>
Created by potrace 1.11, written by Peter Selinger 2001-2013
</metadata>
<g transform="translate(0.000000,512.000000) scale(0.100000,-0.100000)"
fill="#000000" stroke="none">
<path d="M2378 5115 c-2 -1 -39 -5 -82 -9 -44 -4 -82 -9 -85 -11 -4 -2 -34 -7
-66 -10 -117 -14 -472 -111 -499 -136 -6 -5 -16 -9 -23 -9 -8 0 -49 -16 -91
-35 -352 -161 -618 -354 -877 -637 -33 -36 -71 -80 -85 -98 -14 -18 -29 -38
-35 -44 -82 -92 -246 -369 -323 -546 -61 -142 -131 -351 -146 -443 -3 -15 -7
-35 -10 -45 -3 -9 -7 -34 -11 -56 -3 -21 -7 -41 -9 -45 -4 -6 -12 -74 -26
-201 -15 -149 -5 -474 19 -615 51 -298 120 -512 247 -767 189 -382 486 -723
824 -948 12 -8 32 -22 44 -31 80 -62 320 -187 473 -248 101 -40 311 -105 373
-116 19 -3 53 -10 75 -15 67 -15 112 -21 275 -39 82 -9 441 -6 505 3 230 35
354 63 518 117 699 229 1282 768 1557 1439 66 162 124 349 145 469 3 19 8 37
10 41 2 3 7 33 10 65 4 33 9 62 10 65 18 30 26 460 13 600 -31 311 -118 612
-254 883 l-44 87 0 463 0 463 70 69 c39 38 70 74 70 79 0 5 -20 29 -45 53
l-45 45 -75 -74 -75 -74 -463 1 -462 1 -111 57 c-62 31 -115 57 -119 57 -4 0
-21 6 -38 14 -137 62 -421 138 -607 162 -25 3 -56 8 -70 10 -27 6 -456 14
-462 9z"/>
</g>
</svg>
